<svg xmlns="http://www.w3.org/2000/svg" viewBox="0 0 900 300" role="img" aria-label="prewindow instructional diagram"><rect width="900" height="300" rx="12" fill="#F4F7FC"/><text x="30" y="32" font-family="Segoe UI,Arial" font-size="23" fill="#18324D" font-weight="600">04:00–09:30 New York</text><rect x="35" y="65" width="310" height="180" rx="7" fill="#E2EAF9"/><line x1="35" y1="85" x2="850" y2="85" stroke="#214FB2" stroke-width="2" stroke-dasharray=""/><line x1="35" y1="235" x2="850" y2="235" stroke="#214FB2" stroke-width="2" stroke-dasharray=""/><text x="730" y="72" font-family="Segoe UI,Arial" font-size="18" fill="#214FB2" font-weight="600">PWH / upper</text><text x="730" y="263" font-family="Segoe UI,Arial" font-size="18" fill="#214FB2" font-weight="600">PWL / lower</text><line x1="65" y1="120" x2="65" y2="210" stroke="#08776D" stroke-width="2" stroke-dasharray=""/><rect x="55" y="150" width="20" height="35" rx="7" fill="#08776D"/><line x1="120" y1="85" x2="120" y2="180" stroke="#08776D" stroke-width="2" stroke-dasharray=""/><rect x="110" y="110" width="20" height="40" rx="7" fill="#08776D"/><line x1="175" y1="100" x2="175" y2="170" stroke="#AD354E" stroke-width="2" stroke-dasharray=""/><rect x="165" y="110" width="20" height="45" rx="7" fill="#AD354E"/><line x1="230" y1="135" x2="230" y2="235" stroke="#AD354E" stroke-width="2" stroke-dasharray=""/><rect x="220" y="155" width="20" height="50" rx="7" fill="#AD354E"/><line x1="285" y1="130" x2="285" y2="215" stroke="#08776D" stroke-width="2" stroke-dasharray=""/><rect x="275" y="150" width="20" height="55" rx="7" fill="#08776D"/><line x1="380" y1="62" x2="380" y2="245" stroke="#895A00" stroke-width="2" stroke-dasharray="6 5"/><text x="400" y="125" font-family="Segoe UI,Arial" font-size="23" fill="#214FB2" font-weight="600">FREEZE the two lines.</text><text x="400" y="170" font-family="Segoe UI,Arial" font-size="21" fill="#18324D" font-weight="600">Then wait for a NEW 5m close</text><text x="400" y="203" font-family="Segoe UI,Arial" font-size="21" fill="#18324D" font-weight="600">outside the range.</text><text x="40" y="280" font-family="Segoe UI,Arial" font-size="17" fill="#18324D" font-weight="600">All candles in this window</text></svg>