<svg xmlns="http://www.w3.org/2000/svg" viewBox="0 0 800 395" role="img" aria-labelledby="sell-title sell-desc"><title id="sell-title">TMPro Range Breakout: sell, standard entry</title><desc id="sell-desc">Constructed XAUUSD M15 OHLC chart. Reference range 10:00–11:00 UTC. 60-pip breakout body. Entry at 11:15 UTC after the breakout closes. Entry 3346.00, stop 3354.00, selected 2R target 3330.00. Illustrative pip size 0.10, not a broker specification. Final bar shows its open only; no future result.</desc><rect width="800" height="395" rx="12" fill="#f4f7fa"/><style>text{font:14px Arial,sans-serif;fill:#26384b}.muted{fill:#526478}.strong{font-weight:700}</style><text x="20" y="25" class="strong">XAUUSD · M15 · Sell / standard entry</text><text x="20" y="47" class="muted">Constructed teaching candles · UTC · 1 example pip = 0.10 price units</text><path d="M18 292.00H433" stroke="#dde4ed"/><text x="439" y="296.00" class="muted">3343.00</text><path d="M18 235.25H433" stroke="#dde4ed"/><text x="439" y="239.25" class="muted">3346.75</text><path d="M18 178.50H433" stroke="#dde4ed"/><text x="439" y="182.50" class="muted">3350.50</text><path d="M18 121.75H433" stroke="#dde4ed"/><text x="439" y="125.75" class="muted">3354.25</text><path d="M18 65.00H433" stroke="#dde4ed"/><text x="439" y="69.00" class="muted">3358.00</text><rect x="153" y="95.27" width="178" height="105.93" fill="#edcf7d" fill-opacity=".28"/><path d="M153 95.27H433" stroke="#876315" stroke-dasharray="5 4"/><text x="20" y="89.27" fill="#876315">Range high</text><path d="M153 201.20H433" stroke="#876315" stroke-dasharray="5 4"/><text x="20" y="195.20" fill="#876315">Range low</text><path d="M35 122.51V170.93" stroke="#c83e4d" stroke-width="1.6"/><rect x="27" y="140.67" width="16" height="21.19" fill="#c83e4d"/><path d="M81 128.56V172.45" stroke="#087e61" stroke-width="1.6"/><rect x="73" y="137.64" width="16" height="24.21" fill="#087e61"/><text x="81" y="316" text-anchor="middle" font-size="12">09:30</text><path d="M127 116.45V155.80" stroke="#c83e4d" stroke-width="1.6"/><rect x="119" y="137.64" width="16" height="10.59" fill="#c83e4d"/><path d="M173 125.53V170.93" stroke="#c83e4d" stroke-width="1.6"/><rect x="165" y="148.23" width="16" height="7.57" fill="#c83e4d"/><text x="173" y="316" text-anchor="middle" font-size="12">10:00</text><path d="M219 110.40V186.07" stroke="#087e61" stroke-width="1.6"/><rect x="211" y="133.10" width="16" height="22.70" fill="#087e61"/><text x="219" y="316" text-anchor="middle" font-size="12">10:15</text><path d="M265 95.27V155.80" stroke="#c83e4d" stroke-width="1.6"/><rect x="257" y="133.10" width="16" height="7.57" fill="#c83e4d"/><text x="265" y="316" text-anchor="middle" font-size="12">10:30</text><path d="M311 133.10V201.20" stroke="#c83e4d" stroke-width="1.6"/><rect x="303" y="140.67" width="16" height="15.13" fill="#c83e4d"/><text x="311" y="316" text-anchor="middle" font-size="12">10:45</text><path d="M357 149.75V261.73" stroke="#c83e4d" stroke-width="1.6"/><rect x="349" y="155.80" width="16" height="90.80" fill="#c83e4d"/><text x="357" y="316" text-anchor="middle" font-size="12">11:00</text><path d="M393 246.60H413" stroke="#1765a5" stroke-width="3"/><circle cx="403" cy="246.60" r="5" fill="#f4f7fa" stroke="#1765a5" stroke-width="2"/><path d="M403 256.60V285" stroke="#1765a5" stroke-dasharray="3 4"/><text x="403" y="316" text-anchor="middle">11:15</text><text x="403" y="338" text-anchor="middle">Entry open</text><text x="242.0" y="338" text-anchor="middle" fill="#876315">Four range candles</text><path d="M565 66V342" stroke="#ccd5e1"/><text x="583" y="82" class="muted">Breakout body</text><text x="583" y="104" class="strong">60 pips</text><text x="583" y="133" class="muted">Retracement required</text><text x="583" y="155" class="strong">Not required</text><text x="583" y="184" class="muted">Body midpoint</text><text x="583" y="206" class="strong">—</text><text x="583" y="235" class="muted">Entry / SL</text><text x="583" y="257" class="strong">3346.00 / 3354.00</text><text x="583" y="286" class="muted">2R / 3R targets</text><text x="583" y="308" class="strong">3330.00 / 3322.00</text><text x="20" y="368" class="muted">Green = up · red = down · hollow marker = entry open only; no outcome shown.</text><text x="20" y="387" class="muted">Close-outside breakout interpretation. Example pip size is not a broker default.</text></svg>