<svg xmlns="http://www.w3.org/2000/svg" viewBox="0 0 800 395" role="img" aria-labelledby="sell-delayed-title sell-delayed-desc"><title id="sell-delayed-title">TMPro Range Breakout: sell, half-body retracement</title><desc id="sell-delayed-desc">Constructed XAUUSD M15 OHLC chart. Reference range 10:00–11:00 UTC. 120-pip breakout body. Later price retraces at least 60 pips to the midpoint, then entry at 11:30 UTC. Entry 3345.80, stop 3353.80, selected 2R target 3329.80. Illustrative pip size 0.10, not a broker specification. Final bar shows its open only; no future result.</desc><rect width="800" height="395" rx="12" fill="#f4f7fa"/><style>text{font:14px Arial,sans-serif;fill:#26384b}.muted{fill:#526478}.strong{font-weight:700}</style><text x="20" y="25" class="strong">XAUUSD · M15 · Sell / wait for retracement</text><text x="20" y="47" class="muted">Constructed teaching candles · UTC · 1 example pip = 0.10 price units</text><path d="M18 292.00H479" stroke="#dde4ed"/><text x="485" y="296.00" class="muted">3337.00</text><path d="M18 235.25H479" stroke="#dde4ed"/><text x="485" y="239.25" class="muted">3342.25</text><path d="M18 178.50H479" stroke="#dde4ed"/><text x="485" y="182.50" class="muted">3347.50</text><path d="M18 121.75H479" stroke="#dde4ed"/><text x="485" y="125.75" class="muted">3352.75</text><path d="M18 65.00H479" stroke="#dde4ed"/><text x="485" y="69.00" class="muted">3358.00</text><rect x="153" y="86.62" width="178" height="75.67" fill="#edcf7d" fill-opacity=".28"/><path d="M153 86.62H479" stroke="#876315" stroke-dasharray="5 4"/><text x="20" y="80.62" fill="#876315">Range high</text><path d="M153 162.29H479" stroke="#876315" stroke-dasharray="5 4"/><text x="20" y="156.29" fill="#876315">Range low</text><path d="M35 106.08V140.67" stroke="#c83e4d" stroke-width="1.6"/><rect x="27" y="119.05" width="16" height="15.13" fill="#c83e4d"/><path d="M81 110.40V141.75" stroke="#087e61" stroke-width="1.6"/><rect x="73" y="116.89" width="16" height="17.30" fill="#087e61"/><text x="81" y="316" text-anchor="middle" font-size="12">09:30</text><path d="M127 101.75V129.86" stroke="#c83e4d" stroke-width="1.6"/><rect x="119" y="116.89" width="16" height="7.57" fill="#c83e4d"/><path d="M173 108.24V140.67" stroke="#c83e4d" stroke-width="1.6"/><rect x="165" y="124.45" width="16" height="5.40" fill="#c83e4d"/><text x="173" y="316" text-anchor="middle" font-size="12">10:00</text><path d="M219 97.43V151.48" stroke="#087e61" stroke-width="1.6"/><rect x="211" y="113.64" width="16" height="16.21" fill="#087e61"/><text x="219" y="316" text-anchor="middle" font-size="12">10:15</text><path d="M265 86.62V129.86" stroke="#c83e4d" stroke-width="1.6"/><rect x="257" y="113.64" width="16" height="5.40" fill="#c83e4d"/><text x="265" y="316" text-anchor="middle" font-size="12">10:30</text><path d="M311 113.64V162.29" stroke="#c83e4d" stroke-width="1.6"/><rect x="303" y="119.05" width="16" height="10.81" fill="#c83e4d"/><text x="311" y="316" text-anchor="middle" font-size="12">10:45</text><path d="M357 125.53V270.38" stroke="#c83e4d" stroke-width="1.6"/><rect x="349" y="129.86" width="16" height="129.71" fill="#c83e4d"/><text x="357" y="316" text-anchor="middle" font-size="12">11:00</text><path d="M403 192.55V268.22" stroke="#087e61" stroke-width="1.6"/><rect x="395" y="196.88" width="16" height="62.70" fill="#087e61"/><text x="403" y="316" text-anchor="middle" font-size="12">11:15</text><path d="M341 194.71H479" stroke="#5d4fa4" stroke-width="1.7" stroke-dasharray="3 3"/><circle cx="403" cy="194.71" r="5" fill="none" stroke="#5d4fa4" stroke-width="2"/><path d="M439 196.88H459" stroke="#1765a5" stroke-width="3"/><circle cx="449" cy="196.88" r="5" fill="#f4f7fa" stroke="#1765a5" stroke-width="2"/><path d="M449 206.88V285" stroke="#1765a5" stroke-dasharray="3 4"/><text x="449" y="316" text-anchor="middle">11:30</text><text x="449" y="338" text-anchor="middle">Entry open</text><text x="242.0" y="338" text-anchor="middle" fill="#876315">Four range candles</text><path d="M565 66V342" stroke="#ccd5e1"/><text x="583" y="82" class="muted">Breakout body</text><text x="583" y="104" class="strong">120 pips</text><text x="583" y="133" class="muted">Retracement required</text><text x="583" y="155" class="strong">At least 60 pips</text><text x="583" y="184" class="muted">Body midpoint</text><text x="583" y="206" class="strong">3346.00</text><text x="583" y="235" class="muted">Entry / SL</text><text x="583" y="257" class="strong">3345.80 / 3353.80</text><text x="583" y="286" class="muted">2R / 3R targets</text><text x="583" y="308" class="strong">3329.80 / 3321.80</text><text x="20" y="368" class="muted">Green = up · red = down · hollow marker = entry open only; no outcome shown.</text><text x="20" y="387" class="muted">Close-outside breakout interpretation. Example pip size is not a broker default.</text></svg>